PathFileType	4	(X/Y/Z)	D:/83_35.trc
DataRate	CameraRate	NumFrames	NumMarkers	Units	OrigDataRate	OrigDataStartFrame	OrigNumFrames
120.00	120.00	5	41	mm	120.00	885	1048
Frame#	Time	LFWT			RFWT			LBWT			RBWT			LTHI			LKNE			LSHN			LANK			LHEE			LMT5			LTOE			RTHI			RKNE			RSHN			RANK			RHEE			RMT5			RTOE			CLAV			STRN			C7			T10			RBAC			LFHD			RFHD			LBHD			RBHD			LSHO			LUPA			LELB			LFRM			LWRA			LWRB			LFIN			RSHO			RUPA			RELB			RFRM			RWRA			RWRB			RFIN
		X1	Y1	Z1	X2	Y2	Z2	X3	Y3	Z3	X4	Y4	Z4	X5	Y5	Z5	X6	Y6	Z6	X7	Y7	Z7	X8	Y8	Z8	X9	Y9	Z9	X10	Y10	Z10	X11	Y11	Z11	X12	Y12	Z12	X13	Y13	Z13	X14	Y14	Z14	X15	Y15	Z15	X16	Y16	Z16	X17	Y17	Z17	X18	Y18	Z18	X19	Y19	Z19	X20	Y20	Z20	X21	Y21	Z21	X22	Y22	Z22	X23	Y23	Z23	X24	Y24	Z24	X25	Y25	Z25	X26	Y26	Z26	X27	Y27	Z27	X28	Y28	Z28	X29	Y29	Z29	X30	Y30	Z30	X31	Y31	Z31	X32	Y32	Z32	X33	Y33	Z33	X34	Y34	Z34	X35	Y35	Z35	X36	Y36	Z36	X37	Y37	Z37	X38	Y38	Z38	X39	Y39	Z39	X40	Y40	Z40	X41	Y41	Z41

787	6.550	-881.75647	438.18301	1227.01367	-872.31854	700.10950	1193.17151	-718.38660	476.62067	1285.85608	-721.81024	616.16705	1283.51953	-1014.43805	388.97104	1041.49670	-1130.05969	431.93954	942.27289	-1079.84692	413.68884	699.50012	-1029.07947	431.47083	574.14386	-970.90796	476.68445	562.35095	-1121.24707	408.95425	531.02429	-1162.86646	494.00705	547.21008	-792.58026	713.03320	982.10095	-778.43323	673.64575	757.02045	-718.58777	694.40857	656.71057	-607.05304	634.67786	406.93091	-534.99896	586.15735	378.31229	-701.34753	667.80280	360.25964	-744.05438	591.25220	378.63663	-951.47015	532.22552	1605.95520	-924.68311	542.42883	1429.86865	-852.72449	533.27930	1720.18506	-728.81989	552.64282	1529.28162	-760.10571	627.39056	1617.21130	-1103.35913	443.14542	1782.88257	-1093.66382	606.58466	1790.03931	-952.11749	468.47235	1820.37866	-950.42279	580.00049	1825.77063	-878.91608	390.85715	1692.88342	-780.46210	312.59415	1496.96472	-736.53528	305.08530	1408.03003	-708.62128	286.87823	1242.09705	-821.20624	305.14362	1129.59692	-689.92151	242.49567	1139.53479	-767.45447	261.99548	1069.97070	-898.61609	685.85004	1695.27625	-854.98657	766.94476	1590.42700	-770.90820	793.98065	1407.20642	-768.42236	790.48260	1330.35876	-963.84546	789.64020	1175.91809	-840.77368	850.45740	1135.55139	-876.01123	835.13788	1104.17395
788	6.558	-885.90314	436.90244	1228.51001	-875.90576	698.37036	1193.98218	-722.43292	475.37640	1287.48035	-726.12585	615.12537	1285.24280	-1017.47772	388.33951	1042.22168	-1132.57373	431.60098	942.04498	-1080.26880	413.27704	699.08582	-1029.33655	431.34247	573.99878	-970.97510	476.70090	562.43060	-1121.31140	408.80948	530.86584	-1162.97021	493.99054	547.07312	-795.79724	711.97449	983.34497	-780.11945	673.26123	758.11566	-720.51465	694.27625	658.35974	-608.21783	635.32794	408.66556	-537.19849	587.31598	381.65930	-701.28912	667.86975	360.37015	-744.41553	591.20294	378.51575	-956.49310	530.76300	1607.13562	-929.57819	541.25635	1431.03247	-858.65851	531.96222	1721.24573	-734.23584	551.33582	1530.78882	-765.23029	625.91852	1619.23352	-1108.08716	441.63608	1784.03809	-1098.66833	605.38123	1791.68970	-956.41473	466.90131	1821.43347	-955.21948	578.03711	1827.08472	-884.31274	389.58731	1694.25854	-785.54199	311.19730	1498.25854	-742.23193	303.62131	1409.22974	-714.87708	285.54514	1243.15869	-828.56189	303.52509	1131.50000	-696.57269	240.97002	1140.31628	-774.64246	260.48703	1071.19922	-904.07623	684.18396	1696.79224	-860.85187	765.77527	1592.14270	-775.89288	793.46967	1409.08032	-773.91449	789.99030	1332.43188	-968.89160	788.27588	1177.87451	-847.29193	850.31354	1137.62085	-882.50244	834.68610	1106.42297
789	6.567	-890.31250	435.46091	1230.31470	-879.80548	696.70782	1194.93469	-726.81293	474.18024	1289.75659	-730.26160	614.10547	1287.14795	-1020.50067	387.63037	1042.71741	-1134.87732	431.26077	941.53345	-1081.03625	412.97180	698.46985	-1029.84290	431.33838	573.91138	-971.01038	476.74100	562.43475	-1121.33728	408.66946	530.63501	-1163.20618	494.02881	546.98553	-799.31006	710.87299	984.88861	-782.05841	672.93695	759.75336	-722.23315	694.23920	660.05713	-609.30200	635.82800	410.59146	-535.70239	588.34277	384.81363	-701.40332	667.84033	360.43954	-745.09454	591.37579	378.52209	-961.92749	529.32092	1608.76392	-934.45996	539.91919	1432.43127	-864.27936	530.55188	1722.69617	-739.44714	550.36371	1532.53564	-770.79236	624.66681	1620.98962	-1114.35205	440.67877	1785.16040	-1103.85535	603.86627	1793.06946	-963.31201	465.30020	1823.13403	-960.34711	576.25494	1829.21069	-889.74573	388.01904	1695.75928	-790.40662	309.68921	1499.49353	-747.60236	302.18121	1410.63879	-721.30334	284.09979	1244.21277	-835.36993	302.00400	1133.34875	-703.39966	239.53775	1141.33472	-782.00079	258.93762	1072.81177	-908.67291	682.27203	1698.19519	-866.49750	764.55615	1593.89661	-781.16907	792.80151	1410.97998	-779.14893	789.56366	1334.48718	-974.57397	787.08838	1180.15002	-853.01807	849.86188	1139.74219	-888.72919	833.99408	1108.80359
790	6.575	-894.79535	434.19998	1232.60559	-883.82843	695.28369	1196.05383	-732.40747	473.57620	1291.91199	-734.37048	613.01471	1289.18921	-1023.44244	386.82010	1042.87512	-1136.61194	430.85938	940.55341	-1081.99988	412.86560	697.69055	-1030.31775	431.43808	573.78540	-971.02655	476.67953	562.42474	-1121.31702	408.57864	530.48486	-1163.48303	494.13635	546.93848	-802.83502	709.96118	986.80212	-784.72974	672.56628	761.90448	-723.92963	694.19452	662.21344	-610.29523	636.20465	413.08109	-536.55817	589.17377	388.95651	-701.65332	667.85822	360.53888	-745.37836	591.20721	377.87976	-967.08356	527.83685	1610.42163	-939.43530	538.41412	1434.04590	-869.40808	529.02246	1724.63013	-744.32788	549.27325	1534.75769	-776.13977	623.28351	1622.54248	-1120.08203	439.46100	1787.65417	-1109.36682	602.66071	1794.52051	-968.76080	464.20645	1824.44958	-964.97113	574.25256	1829.88623	-895.17010	386.58853	1697.39038	-795.56934	308.27032	1500.89429	-753.08685	300.69644	1412.38586	-727.32776	282.55048	1245.59607	-842.07996	300.65704	1135.21667	-710.72821	238.05298	1142.68848	-789.49176	257.28815	1074.83398	-914.76404	680.79138	1700.01709	-872.01904	763.01105	1596.00427	-787.00208	792.13751	1413.18250	-784.73346	789.29706	1336.56689	-980.85156	786.01770	1182.89355	-858.58325	849.29401	1142.19678	-894.47205	833.42285	1111.28381
791	6.583	-899.34698	433.02356	1235.05627	-887.81378	693.96729	1197.70593	-736.09851	472.26462	1294.75537	-738.68311	611.69977	1291.39673	-1026.12964	386.04846	1042.94324	-1138.54309	430.43585	939.61700	-1082.78027	412.87234	696.89337	-1030.64294	431.45111	573.49890	-971.07678	476.57394	562.35236	-1121.20813	408.55640	530.48877	-1163.61951	494.20682	546.83545	-806.05115	709.30518	988.88055	-787.30151	672.20007	764.26764	-725.76563	694.09973	664.89178	-612.11365	636.84167	415.97708	-537.86633	590.14172	393.43484	-701.85724	667.76166	360.51135	-745.46179	591.12897	377.19836	-971.85120	526.34937	1611.98718	-944.44324	536.80737	1435.79407	-874.34674	527.41644	1726.75830	-749.60852	547.96753	1537.16565	-781.69617	622.26941	1625.74768	-1126.10547	438.87341	1790.21960	-1113.19336	601.71375	1796.45215	-974.72418	462.18948	1826.65393	-970.33337	572.95807	1831.39551	-900.76044	385.40152	1699.24097	-801.32843	306.80960	1502.71790	-758.84735	299.11307	1414.35217	-733.56439	281.19400	1247.33875	-849.25720	299.24359	1137.51416	-717.78107	236.57018	1144.05017	-797.12640	255.62401	1076.95300	-921.13342	679.14551	1702.08020	-877.41443	761.44238	1598.35742	-793.02325	791.46216	1415.65051	-790.81323	788.88293	1339.04749	-986.87177	784.94916	1185.83997	-864.33752	848.70935	1144.99280	-900.03766	833.05499	1113.88025
